# Blender 3.3.0
# www.blender.org
mtllib bush1.mtl
o Icosphere.079
v 0.183202 -0.046137 8.564250
v -0.090469 -0.042530 8.643108
v -0.201936 -0.022988 8.447403
v -0.046145 -0.028937 8.263453
v 0.217747 -0.003024 8.307770
v 0.046003 0.102484 8.616382
v -0.189449 0.056146 8.575300
v -0.154542 0.065600 8.336819
v 0.081466 0.060727 8.263343
v 0.218778 0.057716 8.447817
v -0.003755 0.140640 8.439054
v 0.072196 -0.049537 8.619323
v 0.274642 -0.032626 8.424191
v -0.177299 -0.040573 8.569211
v -0.150757 -0.048912 8.350260
v 0.068502 -0.040894 8.275131
v 0.269397 0.032282 8.493739
v 0.260936 0.036815 8.360542
v -0.004958 0.002675 8.671885
v 0.133846 0.009654 8.624510
v -0.212924 0.014099 8.521239
v -0.150254 0.020192 8.628460
v -0.127418 0.014711 8.278012
v -0.207024 0.016029 8.385613
v 0.156323 0.030149 8.261954
v 0.013225 0.013822 8.234311
v 0.178659 0.072293 8.550781
v -0.100144 0.114119 8.614330
v -0.183461 0.085772 8.442039
v -0.052593 0.075223 8.274175
v 0.189122 0.084901 8.325392
v 0.044425 0.136862 8.540084
v 0.118158 0.115411 8.441131
v -0.110987 0.132518 8.504963
v -0.103022 0.107898 8.385505
v 0.038127 0.121516 8.332918
vn 0.7731 -0.4335 0.4629
vn 0.0836 -0.6429 0.7614
vn -0.8737 -0.4743 0.1082
vn -0.4411 -0.5981 -0.6692
vn 0.3070 -0.5265 -0.7928
vn 0.6995 -0.1384 0.7011
vn -0.2920 -0.0554 0.9548
vn -0.9788 -0.1996 -0.0454
vn -0.2901 -0.2303 -0.9289
vn 0.6591 0.2327 -0.7151
vn 0.3777 0.8471 0.3739
vn -0.5917 0.7833 0.1904
vn -0.4343 0.8551 -0.2833
vn 0.0301 0.7619 -0.6470
vn 0.4924 0.8673 0.0733
vn 0.2033 0.9745 -0.0954
vn 0.2287 0.9667 -0.1146
vn 0.1624 0.7910 -0.5899
vn -0.1827 0.9525 -0.2437
vn -0.2236 0.9032 -0.3664
vn -0.3262 0.8569 -0.3992
vn -0.2019 0.9565 -0.2106
vn -0.3941 0.8946 -0.2107
vn -0.6213 0.7703 0.1433
vn -0.0407 0.9976 0.0567
vn -0.0663 0.9829 0.1719
vn 0.0667 0.9102 0.4087
vn 0.2033 0.9773 -0.0604
vn 0.4226 0.8983 0.1201
vn 0.4928 0.8674 0.0692
vn 0.5360 0.8423 0.0572
vn 0.6093 0.4167 -0.6747
vn 0.2573 0.6618 -0.7042
vn -0.0101 0.5369 -0.8436
vn -0.2822 0.2910 -0.9142
vn -0.4758 0.5446 -0.6907
vn -0.7903 0.5240 -0.3177
vn -0.9376 0.3458 -0.0359
vn -0.9004 0.4314 0.0555
vn -0.5765 0.4136 0.7047
vn -0.2455 0.2710 0.9307
vn 0.0255 0.4758 0.8792
vn 0.4718 0.5095 0.7196
vn 0.6069 0.3846 0.6956
vn 0.4222 0.9058 0.0363
vn 0.1350 0.3721 -0.9183
vn 0.2183 -0.4322 -0.8750
vn 0.0218 -0.5836 -0.8118
vn -0.7762 0.2535 -0.5773
vn -0.7545 -0.3522 -0.5539
vn -0.7957 -0.5396 -0.2752
vn -0.8454 -0.1762 0.5042
vn -0.8550 -0.1130 0.5062
vn -0.5971 -0.4078 0.6908
vn 0.2869 0.3495 0.8919
vn 0.3138 -0.4022 0.8601
vn 0.4005 -0.4852 0.7773
vn 0.4475 0.8943 0.0020
vn 0.9882 0.1419 -0.0579
vn 0.8352 -0.2728 -0.4775
vt 0.805474 0.218674
vt 0.803806 0.218674
vt 0.812145 0.218674
vt 0.810478 0.218674
vt 0.808810 0.218674
vt 0.807142 0.218674
vt 0.804640 0.220118
vt 0.802972 0.220118
vt 0.811312 0.220118
vt 0.809644 0.220118
vt 0.807976 0.220118
vt 0.806308 0.220118
vt 0.807142 0.221563
vt 0.808810 0.221563
vt 0.810478 0.221563
vt 0.803806 0.221563
vt 0.805474 0.221563
vt 0.804640 0.218674
vt 0.806308 0.218674
vt 0.811312 0.218674
vt 0.809644 0.218674
vt 0.807976 0.218674
vt 0.805891 0.219396
vt 0.806725 0.219396
vt 0.804223 0.219396
vt 0.805057 0.219396
vt 0.810895 0.219396
vt 0.803389 0.219396
vt 0.811729 0.219396
vt 0.809227 0.219396
vt 0.810061 0.219396
vt 0.807559 0.219396
vt 0.808393 0.219396
vt 0.805474 0.220118
vt 0.803806 0.220118
vt 0.810478 0.220118
vt 0.808810 0.220118
vt 0.807142 0.220118
vt 0.804223 0.220841
vt 0.805057 0.220841
vt 0.806725 0.220841
vt 0.805891 0.220841
vt 0.810895 0.220841
vt 0.803389 0.220841
vt 0.809227 0.220841
vt 0.810061 0.220841
vt 0.807559 0.220841
vt 0.808393 0.220841
s 0
usemtl Material
f 1/1/1 13/19/1 17/23/1
f 2/2/2 12/18/2 19/25/2
f 3/4/3 14/20/3 21/27/3
f 4/5/4 15/21/4 23/30/4
f 5/6/5 16/22/5 25/32/5
f 1/1/6 17/23/6 20/26/6
f 2/2/7 19/25/7 22/28/7
f 3/4/8 21/27/8 24/31/8
f 4/5/9 23/30/9 26/33/9
f 5/6/10 25/32/10 18/24/10
f 6/7/11 27/34/11 32/40/11
f 7/8/12 28/35/12 34/44/12
f 8/10/13 29/36/13 35/46/13
f 9/11/14 30/37/14 36/48/14
f 10/12/15 31/38/15 33/41/15
f 33/41/16 36/47/16 11/13/16
f 33/41/17 31/38/17 36/47/17
f 31/38/18 9/11/18 36/47/18
f 36/48/19 35/45/19 11/14/19
f 36/48/20 30/37/20 35/45/20
f 30/37/21 8/10/21 35/45/21
f 35/46/22 34/43/22 11/15/22
f 35/46/23 29/36/23 34/43/23
f 29/36/24 7/9/24 34/43/24
f 34/44/25 32/39/25 11/16/25
f 34/44/26 28/35/26 32/39/26
f 28/35/27 6/7/27 32/39/27
f 32/40/28 33/42/28 11/17/28
f 32/40/29 27/34/29 33/42/29
f 27/34/30 10/12/30 33/42/30
f 18/24/31 31/38/31 10/12/31
f 18/24/32 25/32/32 31/38/32
f 25/32/33 9/11/33 31/38/33
f 26/33/34 30/37/34 9/11/34
f 26/33/35 23/30/35 30/37/35
f 23/30/36 8/10/36 30/37/36
f 24/31/37 29/36/37 8/10/37
f 24/31/38 21/27/38 29/36/38
f 21/27/39 7/9/39 29/36/39
f 22/28/40 28/35/40 7/8/40
f 22/28/41 19/25/41 28/35/41
f 19/25/42 6/7/42 28/35/42
f 20/26/43 27/34/43 6/7/43
f 20/26/44 17/23/44 27/34/44
f 17/23/45 10/12/45 27/34/45
f 25/32/46 26/33/46 9/11/46
f 25/32/47 16/22/47 26/33/47
f 16/22/48 4/5/48 26/33/48
f 23/30/49 24/31/49 8/10/49
f 23/30/50 15/21/50 24/31/50
f 15/21/51 3/4/51 24/31/51
f 21/27/52 22/29/52 7/9/52
f 21/27/53 14/20/53 22/29/53
f 14/20/54 2/3/54 22/29/54
f 19/25/55 20/26/55 6/7/55
f 19/25/56 12/18/56 20/26/56
f 12/18/57 1/1/57 20/26/57
f 17/23/58 18/24/58 10/12/58
f 17/23/59 13/19/59 18/24/59
f 13/19/60 5/6/60 18/24/60
