# Blender 3.3.0
# www.blender.org
mtllib bush3 .mtl
o Icosphere.081
v 1.166650 -0.041659 8.672300
v 0.912793 -0.030804 8.472388
v 1.022584 -0.021435 8.283822
v 1.278969 -0.032295 8.306357
v 1.429774 -0.026578 8.562833
v 0.969581 0.134686 8.525407
v 0.923823 0.062132 8.364879
v 1.141118 0.082120 8.254606
v 1.314599 0.101645 8.398962
v 1.335826 0.058448 8.650358
v 1.160769 0.182304 8.434118
v 1.064472 -0.046816 8.617552
v 1.350194 -0.038087 8.686728
v 0.930468 -0.028971 8.362733
v 1.140300 -0.043576 8.267988
v 1.323744 -0.033758 8.403097
v 1.320871 0.023237 8.727893
v 1.425549 0.042459 8.633462
v 0.953139 0.000049 8.580638
v 1.092148 0.011795 8.671674
v 0.950262 0.019146 8.313468
v 0.897952 0.025393 8.425910
v 1.199585 0.031299 8.246068
v 1.071297 0.023083 8.243575
v 1.408922 0.035442 8.483849
v 1.319168 0.044242 8.339331
v 1.179876 0.056772 8.683214
v 0.933534 0.125559 8.450080
v 1.029837 0.095266 8.287186
v 1.249752 0.112440 8.297576
v 1.357012 0.090729 8.532436
v 1.125106 0.172676 8.525672
v 1.357526 0.134541 8.600545
v 1.019676 0.160410 8.361956
v 1.115695 0.132193 8.318309
v 1.253007 0.160984 8.406595
vn -0.0531 -0.5739 0.8172
vn -0.4649 -0.7905 0.3986
vn -0.5490 -0.4769 -0.6864
vn 0.2712 -0.4620 -0.8444
vn 0.7799 -0.3756 -0.5008
vn -0.2149 -0.2886 0.9330
vn -0.9396 0.0336 0.3406
vn -0.4798 -0.2383 -0.8444
vn 0.6137 0.0177 -0.7893
vn 0.9768 0.1794 -0.1170
vn -0.1865 0.7593 0.6235
vn -0.6629 0.6348 -0.3970
vn -0.0968 0.7634 -0.6387
vn 0.6333 0.6998 -0.3305
vn 0.9727 -0.1986 0.1204
vn 0.2280 0.9736 0.0099
vn 0.7754 0.5284 -0.3458
vn 0.6753 0.7210 -0.1556
vn 0.0825 0.9025 -0.4226
vn 0.0711 0.9104 -0.4075
vn 0.0217 0.7902 -0.6125
vn 0.0747 0.9043 -0.4203
vn -0.0812 0.7460 -0.6610
vn -0.5956 0.5638 -0.5722
vn -0.1715 0.9845 0.0367
vn -0.2770 0.9549 0.1069
vn -0.2373 0.9714 -0.0041
vn 0.1137 0.9825 0.1476
vn -0.0651 0.7928 0.6059
vn 0.1728 0.5045 0.8459
vn 0.2211 0.9298 0.2943
vn 0.6750 0.7297 -0.1092
vn 0.6534 0.7426 -0.1469
vn 0.7513 0.5033 -0.4269
vn 0.6011 0.1290 -0.7887
vn 0.2322 0.4149 -0.8797
vn -0.2103 0.4142 -0.8855
vn -0.4927 0.2249 -0.8406
vn -0.6185 0.4165 -0.6663
vn -0.9155 0.3657 -0.1679
vn -0.9030 0.2338 0.3604
vn -0.8814 0.2674 0.3894
vn -0.3729 0.5325 0.7599
vn -0.2431 0.2325 0.9417
vn 0.0798 0.9017 0.4249
vn 0.7452 0.5080 -0.4319
vn 0.7795 -0.3684 -0.5066
vn 0.8692 -0.2814 -0.4066
vn 0.0080 0.1746 -0.9846
vn 0.0382 -0.3085 -0.9504
vn -0.2092 -0.5199 -0.8282
vn -0.9064 -0.0570 -0.4185
vn -0.9065 -0.0557 -0.4186
vn -0.9165 -0.3693 -0.1539
vn -0.5296 0.3765 0.7601
vn -0.4516 -0.4808 0.7516
vn -0.3818 -0.5232 0.7619
vn 0.2371 0.8665 0.4392
vn 0.6773 -0.1585 0.7185
vn 0.7794 -0.4241 0.4612
vt 0.805474 0.218674
vt 0.803806 0.218674
vt 0.812145 0.218674
vt 0.810478 0.218674
vt 0.808810 0.218674
vt 0.807142 0.218674
vt 0.804640 0.220118
vt 0.802972 0.220118
vt 0.811312 0.220118
vt 0.809644 0.220118
vt 0.807976 0.220118
vt 0.806308 0.220118
vt 0.807142 0.221563
vt 0.808810 0.221563
vt 0.810478 0.221563
vt 0.803806 0.221563
vt 0.805474 0.221563
vt 0.804640 0.218674
vt 0.806308 0.218674
vt 0.811312 0.218674
vt 0.809644 0.218674
vt 0.807976 0.218674
vt 0.805891 0.219396
vt 0.806725 0.219396
vt 0.804223 0.219396
vt 0.805057 0.219396
vt 0.810895 0.219396
vt 0.803389 0.219396
vt 0.811729 0.219396
vt 0.809227 0.219396
vt 0.810061 0.219396
vt 0.807559 0.219396
vt 0.808393 0.219396
vt 0.805474 0.220118
vt 0.803806 0.220118
vt 0.810478 0.220118
vt 0.808810 0.220118
vt 0.807142 0.220118
vt 0.804223 0.220841
vt 0.805057 0.220841
vt 0.806725 0.220841
vt 0.805891 0.220841
vt 0.810895 0.220841
vt 0.803389 0.220841
vt 0.809227 0.220841
vt 0.810061 0.220841
vt 0.807559 0.220841
vt 0.808393 0.220841
s 0
usemtl Material
f 1/1/1 13/19/1 17/23/1
f 2/2/2 12/18/2 19/25/2
f 3/4/3 14/20/3 21/27/3
f 4/5/4 15/21/4 23/30/4
f 5/6/5 16/22/5 25/32/5
f 1/1/6 17/23/6 20/26/6
f 2/2/7 19/25/7 22/28/7
f 3/4/8 21/27/8 24/31/8
f 4/5/9 23/30/9 26/33/9
f 5/6/10 25/32/10 18/24/10
f 6/7/11 27/34/11 32/40/11
f 7/8/12 28/35/12 34/44/12
f 8/10/13 29/36/13 35/46/13
f 9/11/14 30/37/14 36/48/14
f 10/12/15 31/38/15 33/41/15
f 33/41/16 36/47/16 11/13/16
f 33/41/17 31/38/17 36/47/17
f 31/38/18 9/11/18 36/47/18
f 36/48/19 35/45/19 11/14/19
f 36/48/20 30/37/20 35/45/20
f 30/37/21 8/10/21 35/45/21
f 35/46/22 34/43/22 11/15/22
f 35/46/23 29/36/23 34/43/23
f 29/36/24 7/9/24 34/43/24
f 34/44/25 32/39/25 11/16/25
f 34/44/26 28/35/26 32/39/26
f 28/35/27 6/7/27 32/39/27
f 32/40/28 33/42/28 11/17/28
f 32/40/29 27/34/29 33/42/29
f 27/34/30 10/12/30 33/42/30
f 18/24/31 31/38/31 10/12/31
f 18/24/32 25/32/32 31/38/32
f 25/32/33 9/11/33 31/38/33
f 26/33/34 30/37/34 9/11/34
f 26/33/35 23/30/35 30/37/35
f 23/30/36 8/10/36 30/37/36
f 24/31/37 29/36/37 8/10/37
f 24/31/38 21/27/38 29/36/38
f 21/27/39 7/9/39 29/36/39
f 22/28/40 28/35/40 7/8/40
f 22/28/41 19/25/41 28/35/41
f 19/25/42 6/7/42 28/35/42
f 20/26/43 27/34/43 6/7/43
f 20/26/44 17/23/44 27/34/44
f 17/23/45 10/12/45 27/34/45
f 25/32/46 26/33/46 9/11/46
f 25/32/47 16/22/47 26/33/47
f 16/22/48 4/5/48 26/33/48
f 23/30/49 24/31/49 8/10/49
f 23/30/50 15/21/50 24/31/50
f 15/21/51 3/4/51 24/31/51
f 21/27/52 22/29/52 7/9/52
f 21/27/53 14/20/53 22/29/53
f 14/20/54 2/3/54 22/29/54
f 19/25/55 20/26/55 6/7/55
f 19/25/56 12/18/56 20/26/56
f 12/18/57 1/1/57 20/26/57
f 17/23/58 18/24/58 10/12/58
f 17/23/59 13/19/59 18/24/59
f 13/19/60 5/6/60 18/24/60
