# Blender 3.3.0
# www.blender.org
mtllib bush2 .mtl
o Icosphere.080
v 0.724337 -0.072825 8.360295
v 0.650954 -0.051734 8.637385
v 0.429869 -0.017280 8.631373
v 0.357173 -0.042952 8.406034
v 0.528087 -0.053275 8.208577
v 0.691964 0.197783 8.534456
v 0.541577 0.114688 8.686713
v 0.355793 0.132525 8.531812
v 0.404654 0.129026 8.296843
v 0.633077 0.102013 8.281476
v 0.514483 0.266286 8.468173
v 0.709880 -0.057024 8.494980
v 0.652675 -0.043431 8.228076
v 0.543385 -0.048711 8.670062
v 0.362739 -0.062161 8.531059
v 0.412973 -0.044985 8.313501
v 0.707091 0.083685 8.282389
v 0.599650 0.068726 8.204131
v 0.716536 0.028338 8.587324
v 0.740930 0.044346 8.460734
v 0.481244 0.043761 8.673998
v 0.608055 0.054061 8.678253
v 0.316276 0.046194 8.479648
v 0.371167 0.048504 8.602003
v 0.443150 0.061782 8.229427
v 0.343152 0.035680 8.352093
v 0.694602 0.158953 8.410015
v 0.620132 0.214346 8.633977
v 0.432038 0.165726 8.612625
v 0.346495 0.147194 8.417154
v 0.537008 0.152717 8.275257
v 0.623645 0.264775 8.502673
v 0.581038 0.217628 8.380025
v 0.516595 0.244911 8.579601
v 0.424061 0.208601 8.524439
v 0.445240 0.225857 8.373163
vn 0.8541 -0.1533 -0.4970
vn 0.8197 -0.4489 0.3558
vn -0.3801 -0.2928 0.8774
vn -0.9152 -0.4024 -0.0211
vn -0.6441 -0.3525 -0.6788
vn 0.9830 0.0174 -0.1827
vn 0.6364 -0.0396 0.7704
vn -0.5471 -0.1182 0.8287
vn -0.9416 -0.2877 -0.1747
vn -0.1618 0.0590 -0.9850
vn 0.7309 0.6557 -0.1891
vn -0.2313 0.5912 0.7727
vn -0.6727 0.6397 0.3719
vn -0.6727 0.6110 -0.4174
vn 0.4039 0.6919 -0.5984
vn 0.0764 0.8962 -0.4370
vn 0.0782 0.8324 -0.5486
vn -0.2345 0.6605 -0.7133
vn -0.5275 0.8493 0.0230
vn -0.6225 0.7826 0.0021
vn -0.7294 0.6686 0.1447
vn -0.4490 0.8759 0.1765
vn -0.5339 0.7404 0.4083
vn -0.2482 0.5865 0.7710
vn -0.0462 0.9809 0.1890
vn 0.0857 0.9293 0.3592
vn 0.5917 0.7471 0.3028
vn 0.1380 0.9075 -0.3968
vn 0.5006 0.7355 -0.4566
vn 0.4946 0.6819 -0.5388
vn 0.4278 0.7483 -0.5069
vn -0.1558 0.5681 -0.8081
vn -0.2331 0.6187 -0.7502
vn -0.8441 0.2888 -0.4517
vn -0.9641 0.1549 -0.2159
vn -0.9282 0.3522 0.1203
vn -0.7499 0.3379 0.5687
vn -0.5302 0.2007 0.8238
vn -0.4638 0.2417 0.8523
vn 0.3255 0.2289 0.9174
vn 0.6559 0.1547 0.7388
vn 0.7997 0.2814 0.5304
vn 0.9363 0.3403 -0.0863
vn 0.9373 0.3326 -0.1045
vn 0.2164 0.8501 -0.4802
vn -0.7816 0.1577 -0.6036
vn -0.7055 -0.3045 -0.6399
vn -0.7696 -0.4488 -0.4542
vn -0.9003 0.1700 0.4007
vn -0.8942 -0.1914 0.4048
vn -0.7005 -0.3466 0.6238
vn -0.0201 -0.1598 0.9869
vn -0.0285 -0.0616 0.9977
vn 0.2753 -0.2473 0.9290
vn 0.9561 0.2042 0.2101
vn 0.9581 -0.2414 0.1541
vn 0.9594 -0.2492 0.1322
vn 0.2183 0.8586 -0.4639
vn 0.5767 0.0996 -0.8108
vn 0.1634 -0.1315 -0.9778
vt 0.805474 0.218674
vt 0.803806 0.218674
vt 0.812145 0.218674
vt 0.810478 0.218674
vt 0.808810 0.218674
vt 0.807142 0.218674
vt 0.804640 0.220118
vt 0.802972 0.220118
vt 0.811312 0.220118
vt 0.809644 0.220118
vt 0.807976 0.220118
vt 0.806308 0.220118
vt 0.807142 0.221563
vt 0.808810 0.221563
vt 0.810478 0.221563
vt 0.803806 0.221563
vt 0.805474 0.221563
vt 0.804640 0.218674
vt 0.806308 0.218674
vt 0.811312 0.218674
vt 0.809644 0.218674
vt 0.807976 0.218674
vt 0.805891 0.219396
vt 0.806725 0.219396
vt 0.804223 0.219396
vt 0.805057 0.219396
vt 0.810895 0.219396
vt 0.803389 0.219396
vt 0.811729 0.219396
vt 0.809227 0.219396
vt 0.810061 0.219396
vt 0.807559 0.219396
vt 0.808393 0.219396
vt 0.805474 0.220118
vt 0.803806 0.220118
vt 0.810478 0.220118
vt 0.808810 0.220118
vt 0.807142 0.220118
vt 0.804223 0.220841
vt 0.805057 0.220841
vt 0.806725 0.220841
vt 0.805891 0.220841
vt 0.810895 0.220841
vt 0.803389 0.220841
vt 0.809227 0.220841
vt 0.810061 0.220841
vt 0.807559 0.220841
vt 0.808393 0.220841
s 0
usemtl Material
f 1/1/1 13/19/1 17/23/1
f 2/2/2 12/18/2 19/25/2
f 3/4/3 14/20/3 21/27/3
f 4/5/4 15/21/4 23/30/4
f 5/6/5 16/22/5 25/32/5
f 1/1/6 17/23/6 20/26/6
f 2/2/7 19/25/7 22/28/7
f 3/4/8 21/27/8 24/31/8
f 4/5/9 23/30/9 26/33/9
f 5/6/10 25/32/10 18/24/10
f 6/7/11 27/34/11 32/40/11
f 7/8/12 28/35/12 34/44/12
f 8/10/13 29/36/13 35/46/13
f 9/11/14 30/37/14 36/48/14
f 10/12/15 31/38/15 33/41/15
f 33/41/16 36/47/16 11/13/16
f 33/41/17 31/38/17 36/47/17
f 31/38/18 9/11/18 36/47/18
f 36/48/19 35/45/19 11/14/19
f 36/48/20 30/37/20 35/45/20
f 30/37/21 8/10/21 35/45/21
f 35/46/22 34/43/22 11/15/22
f 35/46/23 29/36/23 34/43/23
f 29/36/24 7/9/24 34/43/24
f 34/44/25 32/39/25 11/16/25
f 34/44/26 28/35/26 32/39/26
f 28/35/27 6/7/27 32/39/27
f 32/40/28 33/42/28 11/17/28
f 32/40/29 27/34/29 33/42/29
f 27/34/30 10/12/30 33/42/30
f 18/24/31 31/38/31 10/12/31
f 18/24/32 25/32/32 31/38/32
f 25/32/33 9/11/33 31/38/33
f 26/33/34 30/37/34 9/11/34
f 26/33/35 23/30/35 30/37/35
f 23/30/36 8/10/36 30/37/36
f 24/31/37 29/36/37 8/10/37
f 24/31/38 21/27/38 29/36/38
f 21/27/39 7/9/39 29/36/39
f 22/28/40 28/35/40 7/8/40
f 22/28/41 19/25/41 28/35/41
f 19/25/42 6/7/42 28/35/42
f 20/26/43 27/34/43 6/7/43
f 20/26/44 17/23/44 27/34/44
f 17/23/45 10/12/45 27/34/45
f 25/32/46 26/33/46 9/11/46
f 25/32/47 16/22/47 26/33/47
f 16/22/48 4/5/48 26/33/48
f 23/30/49 24/31/49 8/10/49
f 23/30/50 15/21/50 24/31/50
f 15/21/51 3/4/51 24/31/51
f 21/27/52 22/29/52 7/9/52
f 21/27/53 14/20/53 22/29/53
f 14/20/54 2/3/54 22/29/54
f 19/25/55 20/26/55 6/7/55
f 19/25/56 12/18/56 20/26/56
f 12/18/57 1/1/57 20/26/57
f 17/23/58 18/24/58 10/12/58
f 17/23/59 13/19/59 18/24/59
f 13/19/60 5/6/60 18/24/60
