# Blender 3.3.0
# www.blender.org
mtllib elka .mtl
o Circle.018
v 2.264524 -0.145658 4.147605
v 2.285980 -0.145818 4.202491
v 2.340405 -0.145875 4.225225
v 2.402154 -0.145017 4.202491
v 2.424706 -0.145040 4.147605
v 2.404230 -0.144758 4.092719
v 2.339158 -0.146031 4.069984
v 2.289480 -0.145380 4.092719
v 2.283548 -0.085034 4.147605
v 2.294489 -0.085905 4.190833
v 2.341542 -0.085427 4.208738
v 2.392259 -0.084491 4.190833
v 2.397842 -0.086031 4.147605
v 2.392316 -0.084484 4.104377
v 2.335808 -0.086144 4.086472
v 2.300332 -0.085175 4.104377
v 2.305247 0.258708 4.147605
v 2.318812 0.258977 4.175146
v 2.343930 0.258675 4.186554
v 2.370712 0.258580 4.175146
v 2.383129 0.258706 4.147605
v 2.370173 0.258512 4.120064
v 2.346593 0.259007 4.108656
v 2.318437 0.258931 4.120064
v 2.601439 0.207298 3.839965
v 2.266744 0.196925 3.751194
v 1.971996 0.241592 3.949871
v 1.951664 0.242356 4.308465
v 2.217832 0.203217 4.538885
v 2.570279 0.255967 4.482332
v 2.735950 0.232222 4.170325
v 2.319375 0.616610 4.162842
v 2.316223 0.616610 4.161950
v 2.313560 0.616610 4.163858
v 2.313392 0.616610 4.167130
v 2.315845 0.616610 4.169301
v 2.319072 0.616610 4.168737
v 2.320643 0.616610 4.165863
v 2.394055 0.229592 4.510608
v 2.317458 0.616610 4.169019
v 2.319011 0.331085 4.164104
v 2.286717 0.224445 3.894918
v 2.486039 0.402626 4.465972
v 2.669017 0.393657 4.228996
v 2.609512 0.432277 3.927470
v 2.330541 0.432938 3.791023
v 2.057652 0.399097 3.925886
v 1.984540 0.444707 4.225740
v 2.177648 0.424176 4.462398
v 2.323297 0.756533 4.132908
v 2.325065 0.756533 4.130695
v 2.324437 0.756533 4.127933
v 2.321886 0.756533 4.126702
v 2.319333 0.756533 4.127929
v 2.318701 0.756533 4.130690
v 2.320465 0.756533 4.132905
v 2.021096 0.421902 4.075813
v 2.319017 0.756533 4.129309
v 2.322414 0.509657 4.132195
v 2.547776 0.417452 4.196721
v 2.135758 0.610917 4.365927
v 2.374791 0.603488 4.431966
v 2.587334 0.635477 4.291859
v 2.604538 0.636024 4.035208
v 2.415625 0.607994 3.868234
v 2.162808 0.645772 3.906136
v 2.041865 0.628767 4.128353
v 2.340134 0.904054 4.136783
v 2.342385 0.904054 4.137444
v 2.344306 0.904054 4.136097
v 2.344450 0.904054 4.133756
v 2.342710 0.904054 4.132183
v 2.340395 0.904054 4.132563
v 2.339248 0.904054 4.134610
v 2.289217 0.626883 3.887185
v 2.341552 0.904054 4.132373
v 2.340404 0.699570 4.135882
v 2.361546 0.623197 4.328893
v 2.495077 0.755618 3.987234
v 2.311604 0.760875 3.922882
v 2.139744 0.796389 4.021178
v 2.112729 0.798451 4.221010
v 2.250042 0.768135 4.361648
v 2.451225 0.785645 4.345433
v 2.556630 0.765917 4.178046
v 2.337227 0.995392 4.155607
v 2.335505 0.995496 4.154970
v 2.333934 0.995591 4.155921
v 2.333697 0.995606 4.157745
v 2.334973 0.995529 4.159068
v 2.336800 0.995418 4.158894
v 2.337804 0.995357 4.157353
v 2.350634 0.776890 4.353540
v 2.335886 0.995473 4.158981
v 2.327295 0.835389 4.156297
v 2.317411 0.776003 4.004206
v 2.498265 0.882173 4.059370
v 2.368616 0.877390 3.966176
v 2.208994 0.897986 4.003402
v 2.141368 0.898338 4.154583
v 2.218236 0.880291 4.297565
v 2.379390 0.904614 4.331052
v 2.501996 0.893665 4.223804
v 2.323720 1.070911 4.152196
v 2.322509 1.070911 4.151294
v 2.321048 1.070911 4.151680
v 2.320439 1.070911 4.153061
v 2.321139 1.070911 4.154400
v 2.322622 1.070911 4.154686
v 2.323771 1.070911 4.153706
v 2.298813 0.892452 4.314309
v 2.321881 1.070911 4.154543
v 2.323357 0.939252 4.152679
v 2.353630 0.890079 4.031386
vn -0.8896 0.2564 -0.3781
vn 0.3012 0.2536 -0.9192
vn 0.9162 0.3069 0.2578
vn -0.3618 0.2397 0.9009
vn -0.4154 0.2321 -0.8796
vn 0.9169 0.3212 -0.2370
vn 0.3269 0.2365 0.9150
vn -0.9211 0.2400 0.3066
vn -0.4167 0.0673 -0.9066
vn 0.9662 0.0575 -0.2512
vn 0.3525 0.0613 0.9338
vn -0.9424 0.0704 0.3270
vn -0.9191 0.0621 -0.3892
vn 0.3424 0.0573 -0.9378
vn 0.9679 0.0566 0.2450
vn -0.3756 0.0654 0.9245
vn -0.3378 0.6788 -0.6520
vn 0.6466 0.6946 -0.3153
vn 0.0216 0.6637 0.7477
vn -0.7264 0.6860 -0.0426
vn 0.1687 0.6793 -0.7142
vn 0.6479 0.7039 0.2911
vn -0.4378 0.6550 0.6158
vn -0.1251 -0.9831 -0.1333
vn -0.0202 -0.9814 0.1907
vn -0.1356 -0.9592 0.2482
vn 0.1502 -0.9750 0.1639
vn 0.1074 -0.9495 -0.2949
vn 0.0215 0.6642 0.7472
vn 0.7320 0.6788 -0.0585
vn 0.0398 0.6946 0.7183
vn -0.6975 0.6637 -0.2700
vn 0.3210 0.6860 -0.6530
vn 0.5929 0.6793 0.4324
vn -0.5196 0.7039 0.4843
vn -0.3979 0.6550 -0.6424
vn 0.1714 -0.9831 -0.0636
vn -0.1680 -0.9814 -0.0926
vn -0.1762 -0.9592 -0.2212
vn -0.2094 -0.9750 0.0749
vn 0.2302 -0.9495 0.2134
vn -0.6971 0.6642 -0.2700
vn 0.3311 0.6788 0.6555
vn -0.6498 0.6946 0.3086
vn -0.0139 0.6637 -0.7478
vn 0.7259 0.6860 0.0501
vn -0.1760 0.6793 0.7124
vn -0.6449 0.7039 -0.2977
vn 0.4441 0.6550 -0.6113
vn 0.1237 -0.9831 0.1346
vn 0.0221 -0.9814 -0.1905
vn 0.1381 -0.9592 -0.2468
vn -0.1485 -0.9750 -0.1655
vn -0.1104 -0.9495 0.2938
vn -0.0138 0.6642 -0.7474
vn -0.2444 0.6948 -0.6764
vn 0.7099 0.6530 -0.2639
vn 0.0033 0.6647 0.7471
vn -0.6782 0.7282 -0.0991
vn 0.2645 0.6646 -0.6988
vn 0.6646 0.6650 0.3407
vn -0.4441 0.6831 0.5798
vn -0.1734 -0.9745 -0.1427
vn -0.0941 -0.9775 0.1886
vn -0.2121 -0.9481 0.2369
vn 0.0779 -0.9815 0.1752
vn 0.0725 -0.9556 -0.2857
vn 0.0033 0.6652 0.7466
vn -0.0836 0.6788 -0.7296
vn 0.7165 0.6946 -0.0644
vn -0.2460 0.6637 0.7064
vn -0.6636 0.6860 -0.2984
vn 0.4119 0.6793 -0.6073
vn 0.5019 0.7039 0.5026
vn -0.6284 0.6550 0.4196
vn -0.0695 -0.9831 -0.1691
vn -0.0867 -0.9814 0.1710
vn -0.2150 -0.9592 0.1837
vn 0.0820 -0.9750 0.2067
vn 0.2053 -0.9495 -0.2374
vn -0.2459 0.6642 0.7059
vt 0.915091 0.228895
vt 0.914873 0.228621
vt 0.914599 0.228547
vt 0.914327 0.228667
vt 0.914165 0.228964
vt 0.914236 0.229372
vt 0.914735 0.229767
vt 0.915091 0.229346
vt 0.914765 0.228926
vt 0.914700 0.228805
vt 0.914605 0.228755
vt 0.914525 0.228815
vt 0.914479 0.228950
vt 0.914493 0.229090
vt 0.914689 0.229188
vt 0.914755 0.229088
vt 0.914381 0.226647
vt 0.914410 0.226707
vt 0.914435 0.226721
vt 0.914455 0.226689
vt 0.914473 0.226625
vt 0.914452 0.226527
vt 0.914397 0.226407
vt 0.914376 0.226546
vt 0.391753 0.225894
vt 0.391836 0.224294
vt 0.392769 0.223409
vt 0.393765 0.224416
vt 0.393765 0.226386
vt 0.393346 0.227205
vt 0.392306 0.227279
vt 0.392969 0.225373
vt 0.392949 0.225428
vt 0.392920 0.225439
vt 0.392911 0.225405
vt 0.392886 0.225385
vt 0.392919 0.225355
vt 0.392942 0.225339
vt 0.393590 0.226838
vt 0.392902 0.225370
vt 0.392891 0.225636
vt 0.392224 0.224754
vt 0.393776 0.225894
vt 0.393858 0.224294
vt 0.394792 0.223409
vt 0.395788 0.224416
vt 0.395788 0.226386
vt 0.395369 0.227205
vt 0.394328 0.227279
vt 0.394992 0.225373
vt 0.394972 0.225428
vt 0.394943 0.225439
vt 0.394934 0.225405
vt 0.394909 0.225385
vt 0.394942 0.225355
vt 0.394965 0.225339
vt 0.395613 0.226838
vt 0.394925 0.225370
vt 0.394914 0.225636
vt 0.394247 0.224754
vt 0.395799 0.222013
vt 0.395881 0.220413
vt 0.396815 0.219528
vt 0.397811 0.220535
vt 0.397811 0.222505
vt 0.397392 0.223324
vt 0.396352 0.223397
vt 0.397015 0.221492
vt 0.396995 0.221547
vt 0.396966 0.221558
vt 0.396957 0.221524
vt 0.396932 0.221504
vt 0.396965 0.221474
vt 0.396988 0.221458
vt 0.397636 0.222957
vt 0.396948 0.221489
vt 0.396937 0.221755
vt 0.396270 0.220873
vt 0.393776 0.222013
vt 0.393858 0.220413
vt 0.394792 0.219528
vt 0.395788 0.220535
vt 0.395788 0.222505
vt 0.395369 0.223324
vt 0.394328 0.223397
vt 0.394992 0.221492
vt 0.394972 0.221547
vt 0.394943 0.221558
vt 0.394934 0.221524
vt 0.394909 0.221504
vt 0.394942 0.221474
vt 0.394965 0.221458
vt 0.395613 0.222957
vt 0.394925 0.221489
vt 0.394914 0.221755
vt 0.394247 0.220873
vt 0.391753 0.222013
vt 0.391836 0.220413
vt 0.392769 0.219528
vt 0.393765 0.220535
vt 0.393765 0.222505
vt 0.393346 0.223324
vt 0.392306 0.223397
vt 0.392969 0.221492
vt 0.392949 0.221547
vt 0.392920 0.221558
vt 0.392911 0.221524
vt 0.392886 0.221504
vt 0.392919 0.221474
vt 0.392942 0.221458
vt 0.393590 0.222957
vt 0.392902 0.221489
vt 0.392891 0.221755
vt 0.392224 0.220873
s 0
usemtl Material
f 1/1/1 9/9/1 16/16/1 8/8/1
f 7/7/2 15/15/2 14/14/2 6/6/2
f 5/5/3 13/13/3 12/12/3 4/4/3
f 3/3/4 11/11/4 10/10/4 2/2/4
f 8/8/5 16/16/5 15/15/5 7/7/5
f 6/6/6 14/14/6 13/13/6 5/5/6
f 4/4/7 12/12/7 11/11/7 3/3/7
f 2/2/8 10/10/8 9/9/8 1/1/8
f 16/16/9 24/24/9 23/23/9 15/15/9
f 14/14/10 22/22/10 21/21/10 13/13/10
f 12/12/11 20/20/11 19/19/11 11/11/11
f 10/10/12 18/18/12 17/17/12 9/9/12
f 9/9/13 17/17/13 24/24/13 16/16/13
f 15/15/14 23/23/14 22/22/14 14/14/14
f 13/13/15 21/21/15 20/20/15 12/12/15
f 11/11/16 19/19/16 18/18/16 10/10/16
f 27/27/17 34/34/17 33/33/17 26/26/17
f 25/25/18 32/32/18 38/38/18 31/31/18
f 39/39/19 40/40/19 36/36/19 29/29/19
f 28/28/20 35/35/20 34/34/20 27/27/20
f 26/26/21 33/33/21 32/32/21 25/25/21
f 31/31/22 38/38/22 37/37/22 30/30/22
f 29/29/23 36/36/23 35/35/23 28/28/23
f 39/39/24 41/41/24 31/31/24 30/30/24
f 26/26/25 25/25/25 42/42/25 27/27/25
f 41/41/26 42/42/26 25/25/26 31/31/26
f 28/28/27 27/27/27 42/42/27 41/41/27
f 29/29/28 28/28/28 41/41/28 39/39/28
f 30/30/29 37/37/29 40/40/29 39/39/29
f 45/45/30 52/52/30 51/51/30 44/44/30
f 43/43/31 50/50/31 56/56/31 49/49/31
f 57/57/32 58/58/32 54/54/32 47/47/32
f 46/46/33 53/53/33 52/52/33 45/45/33
f 44/44/34 51/51/34 50/50/34 43/43/34
f 49/49/35 56/56/35 55/55/35 48/48/35
f 47/47/36 54/54/36 53/53/36 46/46/36
f 57/57/37 59/59/37 49/49/37 48/48/37
f 44/44/38 43/43/38 60/60/38 45/45/38
f 59/59/39 60/60/39 43/43/39 49/49/39
f 46/46/40 45/45/40 60/60/40 59/59/40
f 47/47/41 46/46/41 59/59/41 57/57/41
f 48/48/42 55/55/42 58/58/42 57/57/42
f 63/63/43 70/70/43 69/69/43 62/62/43
f 61/61/44 68/68/44 74/74/44 67/67/44
f 75/75/45 76/76/45 72/72/45 65/65/45
f 64/64/46 71/71/46 70/70/46 63/63/46
f 62/62/47 69/69/47 68/68/47 61/61/47
f 67/67/48 74/74/48 73/73/48 66/66/48
f 65/65/49 72/72/49 71/71/49 64/64/49
f 75/75/50 77/77/50 67/67/50 66/66/50
f 62/62/51 61/61/51 78/78/51 63/63/51
f 77/77/52 78/78/52 61/61/52 67/67/52
f 64/64/53 63/63/53 78/78/53 77/77/53
f 65/65/54 64/64/54 77/77/54 75/75/54
f 66/66/55 73/73/55 76/76/55 75/75/55
f 81/81/56 88/88/56 87/87/56 80/80/56
f 79/79/57 86/86/57 92/92/57 85/85/57
f 93/93/58 94/94/58 90/90/58 83/83/58
f 82/82/59 89/89/59 88/88/59 81/81/59
f 80/80/60 87/87/60 86/86/60 79/79/60
f 85/85/61 92/92/61 91/91/61 84/84/61
f 83/83/62 90/90/62 89/89/62 82/82/62
f 93/93/63 95/95/63 85/85/63 84/84/63
f 80/80/64 79/79/64 96/96/64 81/81/64
f 95/95/65 96/96/65 79/79/65 85/85/65
f 82/82/66 81/81/66 96/96/66 95/95/66
f 83/83/67 82/82/67 95/95/67 93/93/67
f 84/84/68 91/91/68 94/94/68 93/93/68
f 99/99/69 106/106/69 105/105/69 98/98/69
f 97/97/70 104/104/70 110/110/70 103/103/70
f 111/111/71 112/112/71 108/108/71 101/101/71
f 100/100/72 107/107/72 106/106/72 99/99/72
f 98/98/73 105/105/73 104/104/73 97/97/73
f 103/103/74 110/110/74 109/109/74 102/102/74
f 101/101/75 108/108/75 107/107/75 100/100/75
f 111/111/76 113/113/76 103/103/76 102/102/76
f 98/98/77 97/97/77 114/114/77 99/99/77
f 113/113/78 114/114/78 97/97/78 103/103/78
f 100/100/79 99/99/79 114/114/79 113/113/79
f 101/101/80 100/100/80 113/113/80 111/111/80
f 102/102/81 109/109/81 112/112/81 111/111/81
