# Blender 3.3.0
# www.blender.org
mtllib elka 2 .mtl
o Circle.017
v 0.972498 1.123080 4.335414
v 1.175668 1.116798 4.387281
v 1.353029 1.143847 4.265315
v 1.363319 1.144309 4.048059
v 1.200847 1.120608 3.910032
v 0.987747 1.152552 3.946263
v 0.889185 1.138173 4.136127
v 1.141478 1.370943 4.138311
v 1.143392 1.370943 4.138833
v 1.144994 1.370943 4.137662
v 1.145077 1.370943 4.135681
v 1.143579 1.370943 4.134380
v 1.141629 1.370943 4.134739
v 1.140694 1.370943 4.136489
v 1.094297 1.136580 3.928147
v 1.142604 1.370943 4.134560
v 1.141692 1.198040 4.137545
v 1.162763 1.133463 4.300364
v 1.012328 -0.170993 4.147604
v 1.047613 -0.171256 4.237869
v 1.137119 -0.171350 4.275257
v 1.238670 -0.169939 4.237869
v 1.275758 -0.169977 4.147604
v 1.242084 -0.169513 4.057341
v 1.135068 -0.171607 4.019952
v 1.053368 -0.170536 4.057341
v 1.043613 -0.071293 4.147604
v 1.061607 -0.072724 4.218696
v 1.138989 -0.071938 4.248143
v 1.222397 -0.070399 4.218696
v 1.231578 -0.072932 4.147604
v 1.222491 -0.070387 4.076513
v 1.129559 -0.073117 4.047067
v 1.071215 -0.071523 4.076513
v 1.079298 0.494017 4.147604
v 1.101608 0.494460 4.192898
v 1.142916 0.493962 4.211659
v 1.186960 0.493806 4.192898
v 1.207382 0.494014 4.147604
v 1.186075 0.493695 4.102312
v 1.147296 0.494510 4.083550
v 1.100991 0.494383 4.102312
v 0.682912 0.236793 4.439586
v 1.073998 0.223171 4.671621
v 1.517565 0.281829 4.526165
v 1.671688 0.282833 4.080372
v 1.417920 0.231433 3.693911
v 0.952355 0.300708 3.639130
v 0.631283 0.269525 3.974006
v 1.154937 0.774326 4.132663
v 1.158600 0.774326 4.134919
v 1.162648 0.774326 4.133461
v 1.164032 0.774326 4.129388
v 1.161711 0.774326 4.125766
v 1.157432 0.774326 4.125323
v 1.154417 0.774326 4.128392
v 1.185137 0.266070 3.666521
v 1.159571 0.774326 4.125545
v 1.155849 0.399357 4.131199
v 1.100239 0.259311 4.482875
v 1.529658 0.493309 4.391984
v 1.565970 0.481531 4.000478
v 1.287943 0.532250 3.707885
v 0.882578 0.533117 3.752712
v 0.674738 0.488675 4.094185
v 0.804498 0.548572 4.478176
v 1.185094 0.521611 4.604874
v 1.114950 0.958082 4.137005
v 1.115355 0.958082 4.133307
v 1.112716 0.958082 4.130686
v 1.109021 0.958082 4.131114
v 1.107052 0.958082 4.134270
v 1.108292 0.958082 4.137777
v 1.111807 0.958082 4.138994
v 0.739618 0.518624 4.286180
v 1.107672 0.958082 4.136024
v 1.113469 0.633869 4.136835
v 1.408801 0.512779 4.049934
v 0.801203 0.766850 3.954521
v 0.780299 0.757094 4.279521
v 1.017341 0.799104 4.515270
v 1.351917 0.799822 4.468669
v 1.516010 0.763011 4.181081
v 1.399589 0.812624 3.866189
v 1.081506 0.790292 3.770194
v 1.150531 1.151816 4.155929
v 1.150282 1.151816 4.158999
v 1.152528 1.151816 4.161108
v 1.155578 1.151816 4.160667
v 1.157134 1.151816 4.158009
v 1.156025 1.151816 4.155134
v 1.153087 1.151816 4.154208
v 1.457799 0.787818 4.023635
v 1.156580 1.151816 4.156571
v 1.151761 0.883274 4.156035
v 0.909272 0.782977 4.234895
v 0.984544 0.969900 3.885539
v 0.842374 0.962252 4.097613
v 0.910207 0.995187 4.350777
v 1.155359 0.995750 4.450959
v 1.379857 0.966891 4.320640
v 1.424958 1.005786 4.061334
v 1.247148 0.988278 3.870987
v 1.142017 1.271704 4.159648
v 1.140639 1.271704 4.161632
v 1.141331 1.271704 4.163946
v 1.143572 1.271704 4.164848
v 1.145674 1.271704 4.163658
v 1.146055 1.271704 4.161273
v 1.144427 1.271704 4.159488
v 1.402407 0.986339 4.190987
v 1.145864 1.271704 4.162466
v 1.142809 1.061174 4.160204
v 0.947376 0.982544 4.118158
vn 0.3439 0.6788 0.6488
vn -0.6436 0.6946 0.3213
vn -0.0286 0.6637 -0.7474
vn 0.7268 0.6860 0.0358
vn -0.1620 0.6793 0.7157
vn -0.6506 0.7039 -0.2850
vn 0.4321 0.6550 -0.6199
vn 0.1263 -0.9831 0.1321
vn 0.0184 -0.9814 -0.1909
vn 0.1332 -0.9592 -0.2494
vn -0.1517 -0.9750 -0.1625
vn -0.1046 -0.9495 0.2959
vn -0.0284 0.6642 -0.7470
vn -0.8896 0.2564 -0.3781
vn 0.3012 0.2536 -0.9192
vn 0.9162 0.3069 0.2578
vn -0.3618 0.2397 0.9009
vn -0.4154 0.2321 -0.8796
vn 0.9169 0.3212 -0.2370
vn 0.3269 0.2365 0.9150
vn -0.9211 0.2400 0.3066
vn -0.4167 0.0673 -0.9066
vn 0.9662 0.0575 -0.2512
vn 0.3525 0.0613 0.9338
vn -0.9424 0.0704 0.3270
vn -0.9191 0.0621 -0.3892
vn 0.3424 0.0573 -0.9378
vn 0.9679 0.0566 0.2450
vn -0.3756 0.0654 0.9245
vn 0.1472 0.6788 0.7194
vn -0.7081 0.6946 0.1270
vn 0.1831 0.6637 -0.7252
vn 0.6872 0.6860 0.2391
vn -0.3571 0.6793 0.6411
vn -0.5440 0.7039 -0.4567
vn 0.5892 0.6550 -0.4731
vn 0.0840 -0.9831 0.1624
vn 0.0714 -0.9814 -0.1780
vn 0.1981 -0.9592 -0.2018
vn -0.0998 -0.9750 -0.1987
vn -0.1837 -0.9495 0.2545
vn 0.1831 0.6642 -0.7248
vn 0.5869 0.6788 -0.4414
vn 0.4182 0.6946 0.5853
vn -0.7337 0.6637 0.1454
vn -0.0786 0.6860 -0.7234
vn 0.7323 0.6793 0.0478
vn -0.1795 0.7039 0.6873
vn -0.6800 0.6550 -0.3295
vn 0.1107 -0.9831 -0.1455
vn -0.1914 -0.9814 0.0118
vn -0.2673 -0.9592 -0.0925
vn -0.1367 -0.9750 0.1754
vn 0.3087 -0.9495 0.0569
vn -0.7333 0.6642 0.1452
vn -0.5742 0.6788 0.4578
vn -0.4346 0.6946 -0.5732
vn 0.7293 0.6637 -0.1661
vn 0.0990 0.6860 0.7209
vn -0.7333 0.6793 -0.0271
vn 0.1600 0.7039 -0.6921
vn 0.6890 0.6550 0.3102
vn -0.1065 -0.9831 0.1486
vn 0.1910 -0.9814 -0.0172
vn 0.2698 -0.9592 0.0849
vn 0.1317 -0.9750 -0.1792
vn -0.3102 -0.9495 -0.0482
vn 0.7289 0.6642 -0.1659
vn -0.7264 0.6788 0.1073
vn -0.0878 0.6946 -0.7140
vn 0.7140 0.6637 0.2227
vn -0.2766 0.6860 0.6730
vn -0.6205 0.6793 -0.3918
vn 0.4860 0.7039 -0.5180
vn 0.4399 0.6550 0.6143
vn -0.1667 -0.9831 0.0749
vn 0.1738 -0.9814 0.0811
vn 0.1906 -0.9592 0.2089
vn 0.2039 -0.9750 -0.0887
vn -0.2440 -0.9495 -0.1975
vn 0.7136 0.6642 0.2227
vt 0.397822 0.222013
vt 0.397904 0.220413
vt 0.398838 0.219528
vt 0.399834 0.220535
vt 0.399834 0.222505
vt 0.399415 0.223324
vt 0.398374 0.223397
vt 0.399038 0.221492
vt 0.399017 0.221547
vt 0.398989 0.221558
vt 0.398980 0.221524
vt 0.398955 0.221504
vt 0.398988 0.221474
vt 0.399011 0.221458
vt 0.399659 0.222957
vt 0.398971 0.221489
vt 0.398960 0.221755
vt 0.398293 0.220873
vt 0.915091 0.225533
vt 0.914873 0.225258
vt 0.914599 0.225185
vt 0.914327 0.225305
vt 0.914165 0.225602
vt 0.914236 0.226010
vt 0.914735 0.226405
vt 0.915091 0.225984
vt 0.914765 0.225564
vt 0.914700 0.225442
vt 0.914605 0.225393
vt 0.914525 0.225452
vt 0.914479 0.225587
vt 0.914493 0.225728
vt 0.914689 0.225825
vt 0.914755 0.225726
vt 0.914381 0.223284
vt 0.914410 0.223344
vt 0.914435 0.223359
vt 0.914455 0.223327
vt 0.914473 0.223263
vt 0.914452 0.223165
vt 0.914397 0.223045
vt 0.914376 0.223184
vt 0.393776 0.229775
vt 0.393858 0.228175
vt 0.394792 0.227290
vt 0.395788 0.228297
vt 0.395788 0.230267
vt 0.395369 0.231086
vt 0.394328 0.231160
vt 0.394992 0.229255
vt 0.394972 0.229309
vt 0.394943 0.229320
vt 0.394934 0.229286
vt 0.394909 0.229266
vt 0.394942 0.229236
vt 0.394965 0.229220
vt 0.395613 0.230719
vt 0.394925 0.229251
vt 0.394914 0.229517
vt 0.394247 0.228635
vt 0.399845 0.225894
vt 0.399927 0.224294
vt 0.400861 0.223409
vt 0.401857 0.224416
vt 0.401857 0.226386
vt 0.401438 0.227205
vt 0.400397 0.227279
vt 0.401061 0.225373
vt 0.401040 0.225428
vt 0.401012 0.225439
vt 0.401003 0.225405
vt 0.400978 0.225385
vt 0.401011 0.225355
vt 0.401033 0.225339
vt 0.401682 0.226838
vt 0.400994 0.225370
vt 0.400983 0.225636
vt 0.400316 0.224754
vt 0.401868 0.229775
vt 0.401950 0.228175
vt 0.402884 0.227290
vt 0.403880 0.228297
vt 0.403880 0.230267
vt 0.403461 0.231086
vt 0.402420 0.231160
vt 0.403083 0.229255
vt 0.403063 0.229309
vt 0.403035 0.229320
vt 0.403026 0.229286
vt 0.403001 0.229266
vt 0.403034 0.229236
vt 0.403057 0.229220
vt 0.403705 0.230719
vt 0.403017 0.229251
vt 0.403006 0.229517
vt 0.402339 0.228635
vt 0.395799 0.229775
vt 0.395881 0.228175
vt 0.396815 0.227290
vt 0.397811 0.228297
vt 0.397811 0.230267
vt 0.397392 0.231086
vt 0.396352 0.231160
vt 0.397015 0.229255
vt 0.396995 0.229309
vt 0.396966 0.229320
vt 0.396957 0.229286
vt 0.396932 0.229266
vt 0.396965 0.229236
vt 0.396988 0.229220
vt 0.397636 0.230719
vt 0.396948 0.229251
vt 0.396937 0.229517
vt 0.396270 0.228635
s 0
usemtl Material
f 3/3/1 10/10/1 9/9/1 2/2/1
f 1/1/2 8/8/2 14/14/2 7/7/2
f 15/15/3 16/16/3 12/12/3 5/5/3
f 4/4/4 11/11/4 10/10/4 3/3/4
f 2/2/5 9/9/5 8/8/5 1/1/5
f 7/7/6 14/14/6 13/13/6 6/6/6
f 5/5/7 12/12/7 11/11/7 4/4/7
f 15/15/8 17/17/8 7/7/8 6/6/8
f 2/2/9 1/1/9 18/18/9 3/3/9
f 17/17/10 18/18/10 1/1/10 7/7/10
f 4/4/11 3/3/11 18/18/11 17/17/11
f 5/5/12 4/4/12 17/17/12 15/15/12
f 6/6/13 13/13/13 16/16/13 15/15/13
f 19/19/14 27/27/14 34/34/14 26/26/14
f 25/25/15 33/33/15 32/32/15 24/24/15
f 23/23/16 31/31/16 30/30/16 22/22/16
f 21/21/17 29/29/17 28/28/17 20/20/17
f 26/26/18 34/34/18 33/33/18 25/25/18
f 24/24/19 32/32/19 31/31/19 23/23/19
f 22/22/20 30/30/20 29/29/20 21/21/20
f 20/20/21 28/28/21 27/27/21 19/19/21
f 34/34/22 42/42/22 41/41/22 33/33/22
f 32/32/23 40/40/23 39/39/23 31/31/23
f 30/30/24 38/38/24 37/37/24 29/29/24
f 28/28/25 36/36/25 35/35/25 27/27/25
f 27/27/26 35/35/26 42/42/26 34/34/26
f 33/33/27 41/41/27 40/40/27 32/32/27
f 31/31/28 39/39/28 38/38/28 30/30/28
f 29/29/29 37/37/29 36/36/29 28/28/29
f 45/45/30 52/52/30 51/51/30 44/44/30
f 43/43/31 50/50/31 56/56/31 49/49/31
f 57/57/32 58/58/32 54/54/32 47/47/32
f 46/46/33 53/53/33 52/52/33 45/45/33
f 44/44/34 51/51/34 50/50/34 43/43/34
f 49/49/35 56/56/35 55/55/35 48/48/35
f 47/47/36 54/54/36 53/53/36 46/46/36
f 57/57/37 59/59/37 49/49/37 48/48/37
f 44/44/38 43/43/38 60/60/38 45/45/38
f 59/59/39 60/60/39 43/43/39 49/49/39
f 46/46/40 45/45/40 60/60/40 59/59/40
f 47/47/41 46/46/41 59/59/41 57/57/41
f 48/48/42 55/55/42 58/58/42 57/57/42
f 63/63/43 70/70/43 69/69/43 62/62/43
f 61/61/44 68/68/44 74/74/44 67/67/44
f 75/75/45 76/76/45 72/72/45 65/65/45
f 64/64/46 71/71/46 70/70/46 63/63/46
f 62/62/47 69/69/47 68/68/47 61/61/47
f 67/67/48 74/74/48 73/73/48 66/66/48
f 65/65/49 72/72/49 71/71/49 64/64/49
f 75/75/50 77/77/50 67/67/50 66/66/50
f 62/62/51 61/61/51 78/78/51 63/63/51
f 77/77/52 78/78/52 61/61/52 67/67/52
f 64/64/53 63/63/53 78/78/53 77/77/53
f 65/65/54 64/64/54 77/77/54 75/75/54
f 66/66/55 73/73/55 76/76/55 75/75/55
f 81/81/56 88/88/56 87/87/56 80/80/56
f 79/79/57 86/86/57 92/92/57 85/85/57
f 93/93/58 94/94/58 90/90/58 83/83/58
f 82/82/59 89/89/59 88/88/59 81/81/59
f 80/80/60 87/87/60 86/86/60 79/79/60
f 85/85/61 92/92/61 91/91/61 84/84/61
f 83/83/62 90/90/62 89/89/62 82/82/62
f 93/93/63 95/95/63 85/85/63 84/84/63
f 80/80/64 79/79/64 96/96/64 81/81/64
f 95/95/65 96/96/65 79/79/65 85/85/65
f 82/82/66 81/81/66 96/96/66 95/95/66
f 83/83/67 82/82/67 95/95/67 93/93/67
f 84/84/68 91/91/68 94/94/68 93/93/68
f 99/99/69 106/106/69 105/105/69 98/98/69
f 97/97/70 104/104/70 110/110/70 103/103/70
f 111/111/71 112/112/71 108/108/71 101/101/71
f 100/100/72 107/107/72 106/106/72 99/99/72
f 98/98/73 105/105/73 104/104/73 97/97/73
f 103/103/74 110/110/74 109/109/74 102/102/74
f 101/101/75 108/108/75 107/107/75 100/100/75
f 111/111/76 113/113/76 103/103/76 102/102/76
f 98/98/77 97/97/77 114/114/77 99/99/77
f 113/113/78 114/114/78 97/97/78 103/103/78
f 100/100/79 99/99/79 114/114/79 113/113/79
f 101/101/80 100/100/80 113/113/80 111/111/80
f 102/102/81 109/109/81 112/112/81 111/111/81
