# Blender 3.3.0
# www.blender.org
mtllib gas building.mtl
o Cube.051
v 1.305848 0.210133 -3.121797
v 1.305848 0.257901 -3.121797
v 1.353918 0.210133 -3.121797
v 1.353918 0.257901 -3.121797
v 1.305848 0.210133 -3.050549
v 1.305848 0.257901 -3.050549
v 1.353918 0.210133 -3.050549
v 1.353918 0.257901 -3.050549
v 0.847968 -0.098738 -2.817141
v 0.847968 0.099349 -2.817141
v 0.696323 -0.102513 -3.157781
v 0.696323 0.177058 -3.157781
v 1.452412 -0.098241 -2.915946
v 1.452412 0.095470 -2.915946
v 1.452412 -0.098241 -3.058976
v 1.452412 0.095470 -3.058976
v 0.666799 0.177058 -2.784714
v 0.666799 0.177058 -3.190208
v 1.481937 0.177058 -3.190208
v 1.481937 0.177058 -2.784714
v 0.666799 0.212481 -2.784714
v 0.666799 0.212481 -3.190208
v 1.481937 0.212481 -3.190208
v 1.481937 0.212481 -2.784714
v 1.452412 0.177058 -3.157781
v 1.452412 -0.102513 -3.157781
v 1.300767 -0.098738 -2.817141
v 1.300767 0.099349 -2.817141
v 1.429480 0.095470 -3.058976
v 1.429480 -0.098241 -3.058976
v 1.429480 -0.098241 -2.915946
v 1.429480 0.095470 -2.915946
v 0.696323 -0.102513 -2.817141
v 0.696323 0.177058 -2.817141
v 1.452412 0.177058 -2.817141
v 1.452412 -0.102513 -2.817141
v 0.766259 -0.098738 -2.902502
v 0.766259 0.099349 -2.902502
v 1.382477 0.099349 -2.902502
v 1.382477 -0.098738 -2.902502
v 0.865367 0.045005 -2.750909
v 1.283369 0.045005 -2.750909
v 1.229747 0.210133 -3.121797
v 1.229747 0.257901 -3.121797
v 1.277816 0.210133 -3.121797
v 1.277816 0.257901 -3.121797
v 1.229747 0.210133 -3.050549
v 1.229747 0.257901 -3.050549
v 1.277816 0.210133 -3.050549
v 1.277816 0.257901 -3.050549
vn -0.0000 -0.0000 -1.0000
vn 1.0000 -0.0000 -0.0000
vn -0.0000 -0.0000 1.0000
vn -1.0000 -0.0000 -0.0000
vn -0.0000 -1.0000 -0.0000
vn -0.0000 1.0000 -0.0000
vn 0.7224 -0.0000 -0.6915
vn -0.7224 -0.0000 -0.6915
vn -0.0000 0.7731 0.6343
vt 0.668714 0.494737
vt 0.668714 0.484474
vt 0.671279 0.487040
vt 0.666148 0.494737
vt 0.666148 0.484474
vt 0.663583 0.487040
vt 0.668714 0.492171
vt 0.671279 0.489605
vt 0.666148 0.492171
vt 0.663583 0.489605
vt 0.668714 0.487040
vt 0.666148 0.487040
vt 0.668714 0.489605
vt 0.666148 0.489605
vt 0.487082 0.943005
vt 0.313460 0.766627
vt 0.314665 0.766627
vt 0.289862 0.321273
vt 0.313368 0.762499
vt 0.311978 0.763889
vt 0.314757 0.762499
vt 0.287907 0.320256
vt 0.313581 0.765065
vt 0.314544 0.765065
vt 0.313581 0.764102
vt 0.314544 0.764102
vt 0.287907 0.318290
vt 0.287907 0.326154
vt 0.287907 0.320256
vt 0.287907 0.322222
vt 0.287907 0.324188
vt 0.287907 0.318290
vt 0.289873 0.324188
vt 0.287907 0.326154
vt 0.289873 0.322222
vt 0.287907 0.320256
vt 0.287907 0.322222
vt 0.287907 0.324188
vt 0.287907 0.322222
vt 0.314757 0.763889
vt 0.313368 0.763889
vt 0.487082 0.941698
vt 0.313460 0.765320
vt 0.314665 0.765320
vt 0.289862 0.319966
vt 0.287981 0.316880
vt 0.314544 0.764102
vt 0.287019 0.316880
vt 0.313581 0.764102
vt 0.287019 0.317843
vt 0.313581 0.765065
vt 0.287981 0.317843
vt 0.314544 0.765065
vt 0.313368 0.761109
vt 0.311978 0.765279
vt 0.313368 0.766668
vt 0.314757 0.761109
vt 0.287907 0.318290
vt 0.287907 0.326154
vt 0.314757 0.766668
vt 0.287907 0.324188
vt 0.314757 0.765279
vt 0.313368 0.765279
vt 0.487082 0.943005
vt 0.482121 0.943005
vt 0.313460 0.766627
vt 0.483327 0.943005
vt 0.314665 0.766627
vt 0.483327 0.941698
vt 0.314665 0.765320
vt 0.487082 0.941698
vt 0.482121 0.941698
vt 0.313460 0.765320
vt 0.289862 0.321273
vt 0.289862 0.319966
vt 0.668714 0.494737
vt 0.668714 0.484474
vt 0.671279 0.487040
vt 0.666148 0.494737
vt 0.666148 0.484474
vt 0.663583 0.487040
vt 0.668714 0.492171
vt 0.671279 0.489605
vt 0.666148 0.492171
vt 0.663583 0.489605
vt 0.668714 0.487040
vt 0.666148 0.487040
vt 0.668714 0.489605
vt 0.666148 0.489605
s 0
usemtl Material.003
f 1/1/1 2/4/1 4/9/1 3/7/1
f 3/7/2 4/9/2 8/14/2 7/13/2
f 7/13/3 8/14/3 6/12/3 5/11/3
f 5/11/4 6/12/4 2/5/4 1/2/4
f 3/8/5 7/13/5 5/11/5 1/3/5
f 8/14/6 4/10/6 2/6/6 6/12/6
f 33/54/4 34/57/4 12/21/4 11/19/4
f 11/19/1 12/21/1 25/40/1 26/41/1
f 16/26/5 14/24/5 32/53/5 29/47/5
f 9/15/6 27/42/6 40/71/6 37/64/6
f 11/20/5 26/41/5 36/63/5 33/55/5
f 35/61/5 25/39/5 19/30/5 20/31/5
f 18/29/4 17/27/4 21/32/4 22/36/4
f 12/22/5 34/58/5 17/27/5 18/29/5
f 34/59/5 35/61/5 20/31/5 17/28/5
f 25/39/5 12/22/5 18/29/5 19/30/5
f 23/37/6 22/35/6 21/33/6 24/38/6
f 17/28/3 20/31/3 24/38/3 21/34/3
f 19/30/1 18/29/1 22/36/1 23/37/1
f 20/31/2 19/30/2 23/37/2 24/38/2
f 16/26/2 15/25/2 26/41/2 25/40/2
f 15/25/2 13/23/2 36/63/2 26/41/2
f 14/24/2 16/26/2 25/40/2 35/62/2
f 13/23/2 14/24/2 35/62/2 36/63/2
f 30/48/2 29/46/2 32/52/2 31/50/2
f 15/25/3 16/26/3 29/47/3 30/49/3
f 14/24/1 13/23/1 31/51/1 32/53/1
f 13/23/6 15/25/6 30/49/6 31/51/6
f 9/16/3 10/17/3 34/60/3 33/56/3
f 28/44/3 27/43/3 36/63/3 35/62/3
f 27/43/3 9/16/3 33/56/3 36/63/3
f 10/17/3 28/44/3 35/62/3 34/60/3
f 40/72/3 39/69/3 38/67/3 37/65/3
f 10/17/7 9/16/7 37/66/7 38/68/7
f 28/44/5 10/17/5 38/68/5 39/70/5
f 27/43/8 28/44/8 39/70/8 40/73/8
f 10/18/9 41/74/9 42/75/9 28/45/9
f 43/76/1 44/79/1 46/84/1 45/82/1
f 45/82/2 46/84/2 50/89/2 49/88/2
f 49/88/3 50/89/3 48/87/3 47/86/3
f 47/86/4 48/87/4 44/80/4 43/77/4
f 45/83/5 49/88/5 47/86/5 43/78/5
f 50/89/6 46/85/6 44/81/6 48/87/6
