# Blender 3.3.0
# www.blender.org
mtllib stone2.mtl
o Icosphere.007
v 1.863616 0.139117 1.270119
v 1.457052 0.180331 1.116583
v 1.484803 0.183683 0.980461
v 1.867204 0.151233 0.890486
v 2.097194 0.136232 1.067547
v 1.752542 0.333020 1.066710
v 2.056409 -0.030816 1.114224
v 1.988348 -0.039207 0.998772
v 1.771608 -0.019348 1.264346
v 1.971294 -0.029072 1.234848
v 1.382532 -0.028916 1.143635
v 1.523337 -0.028599 1.265451
v 1.526527 -0.026574 0.881015
v 1.384988 -0.029126 1.001449
v 1.828274 -0.033402 0.944962
v 1.751340 -0.033098 0.863954
v 2.035346 0.151452 1.178983
v 1.567322 0.168506 1.241201
v 1.513037 0.195431 1.077193
v 1.695146 0.236412 0.903747
v 2.052985 0.161966 0.998610
v 1.841144 0.225189 1.168366
v 1.972001 0.235437 1.044555
v 1.561222 0.271759 1.149080
v 1.557326 0.354780 0.996158
v 1.890471 0.297491 1.000974
vn 0.2582 0.7650 0.5901
vn -0.6251 0.4988 0.6004
vn -0.9052 0.3635 0.2201
vn 0.2188 0.5658 -0.7950
vn 0.6299 0.7677 -0.1174
vn 0.4051 0.8184 0.4076
vn 0.6363 0.7648 -0.1014
vn 0.4116 0.5068 -0.7575
vn 0.1694 0.9709 -0.1693
vn 0.1305 0.7001 -0.7020
vn -0.3858 0.2451 -0.8894
vn -0.0749 0.8756 0.4773
vn -0.9051 0.3637 0.2205
vn -0.5100 0.7381 -0.4418
vn 0.0709 0.7145 0.6961
vn 0.0597 0.6665 0.7431
vn 0.0130 0.7648 0.6441
vn 0.3960 0.7809 0.4832
vn 0.3069 0.8654 0.3960
vn 0.5818 0.7842 0.2158
vn 0.7707 -0.2481 -0.5869
vn 0.3137 -0.1015 -0.9441
vn 0.4876 -0.3401 -0.8041
vn -0.0044 0.1452 -0.9894
vn -0.0712 0.1311 -0.9888
vn -0.3951 0.3275 -0.8583
vn -0.8785 0.4321 0.2039
vn -0.8663 0.4993 -0.0157
vn -0.5913 0.1073 -0.7993
vn -0.7155 0.2404 0.6559
vn -0.0001 0.1221 0.9925
vn -0.0953 0.0190 0.9953
vn 0.4598 0.1096 0.8812
vn 0.8113 -0.1102 0.5741
vn 0.8676 -0.0744 0.4917
vn 0.6824 -0.3355 -0.6494
vn -0.6339 0.2243 -0.7402
vn -0.6216 0.3141 0.7176
vn 0.1396 -0.1169 0.9833
vn 0.8235 -0.3300 -0.4615
vt 0.337894 0.218880
vt 0.338743 0.218880
vt 0.334499 0.218880
vt 0.335348 0.218880
vt 0.336197 0.218880
vt 0.337046 0.218880
vt 0.336621 0.218145
vt 0.335772 0.218145
vt 0.334923 0.218145
vt 0.338319 0.218145
vt 0.337470 0.218145
vt 0.337258 0.219247
vt 0.336833 0.219247
vt 0.338107 0.219247
vt 0.337682 0.219247
vt 0.334711 0.219247
vt 0.338531 0.219247
vt 0.334286 0.219247
vt 0.335560 0.219247
vt 0.335135 0.219247
vt 0.336409 0.219247
vt 0.335984 0.219247
vt 0.337470 0.218880
vt 0.338319 0.218880
vt 0.334923 0.218880
vt 0.335772 0.218880
vt 0.336621 0.218880
vt 0.338107 0.218512
vt 0.337682 0.218512
vt 0.336833 0.218512
vt 0.337258 0.218512
vt 0.334711 0.218512
vt 0.338531 0.218512
vt 0.335560 0.218512
vt 0.335135 0.218512
vt 0.336409 0.218512
vt 0.335984 0.218512
s 0
usemtl Material
f 1/1/1 17/23/1 22/29/1
f 2/2/2 18/24/2 24/33/2
f 3/4/3 19/25/3 25/35/3
f 4/5/4 20/26/4 26/37/4
f 5/6/5 21/27/5 23/30/5
f 23/30/6 26/36/6 6/7/6
f 23/30/7 21/27/7 26/36/7
f 21/27/8 4/5/8 26/36/8
f 26/37/9 25/34/9 6/8/9
f 26/37/10 20/26/10 25/34/10
f 20/26/11 3/4/11 25/34/11
f 25/35/12 24/32/12 6/9/12
f 25/35/13 19/25/13 24/32/13
f 19/25/14 2/3/14 24/32/14
f 24/33/15 22/28/15 6/10/15
f 24/33/16 18/24/16 22/28/16
f 18/24/17 1/1/17 22/28/17
f 22/29/18 23/31/18 6/11/18
f 22/29/19 17/23/19 23/31/19
f 17/23/20 5/6/20 23/31/20
f 8/13/21 21/27/21 5/6/21
f 8/13/22 15/21/22 21/27/22
f 15/21/23 4/5/23 21/27/23
f 16/22/24 20/26/24 4/5/24
f 16/22/25 13/19/25 20/26/25
f 13/19/26 3/4/26 20/26/26
f 14/20/27 19/25/27 3/4/27
f 14/20/28 11/16/28 19/25/28
f 11/16/29 2/3/29 19/25/29
f 12/17/30 18/24/30 2/2/30
f 12/17/31 9/14/31 18/24/31
f 9/14/32 1/1/32 18/24/32
f 10/15/33 17/23/33 1/1/33
f 10/15/34 7/12/34 17/23/34
f 7/12/35 5/6/35 17/23/35
f 15/21/36 16/22/36 4/5/36
f 13/19/37 14/20/37 3/4/37
f 11/16/38 12/18/38 2/3/38
f 9/14/39 10/15/39 1/1/39
f 7/12/40 8/13/40 5/6/40
