# Blender 3.3.0
# www.blender.org
mtllib stone3.mtl
o Icosphere.003
v 0.886688 0.078478 0.924426
v 0.685819 0.080778 0.827468
v 0.695062 0.067198 0.521847
v 0.898703 0.111371 0.506472
v 1.020685 0.081302 0.686963
v 0.864475 0.251245 0.671842
v 1.063231 0.007307 0.742043
v 1.032981 0.004598 0.629814
v 0.827940 -0.007096 0.982520
v 0.952042 -0.009308 0.927165
v 0.632355 -0.040819 0.780179
v 0.713659 -0.028295 0.898243
v 0.699741 -0.016454 0.516491
v 0.624822 -0.012078 0.650187
v 0.973407 -0.003369 0.506728
v 0.838649 -0.008648 0.431015
v 0.992231 0.134231 0.828580
v 0.764606 0.114819 0.935734
v 0.662059 0.125698 0.677394
v 0.772748 0.095527 0.497796
v 0.997248 0.118753 0.531897
v 0.858257 0.144810 0.800632
v 0.970584 0.186577 0.578003
v 0.752903 0.190985 0.765407
v 0.771388 0.240540 0.607489
v 0.875006 0.173935 0.474197
vn -0.0303 0.8781 0.4775
vn -0.7149 0.6187 0.3258
vn -0.7753 0.5191 -0.3597
vn 0.1149 -0.4207 -0.8999
vn 0.9191 0.3915 -0.0444
vn 0.2506 0.9060 -0.3411
vn 0.5464 0.6071 -0.5770
vn 0.2582 -0.3639 -0.8950
vn 0.1386 0.9248 -0.3543
vn -0.5416 0.5039 -0.6728
vn -0.4228 0.5442 -0.7246
vn -0.2837 0.9239 0.2567
vn -0.6688 0.7281 0.1502
vn -0.7308 0.6134 0.2993
vn 0.1215 0.7622 0.6358
vn 0.2623 0.8875 0.3788
vn 0.2954 0.8687 0.3976
vn 0.7221 0.5157 0.4611
vn 0.0353 0.9789 0.2014
vn 0.8968 0.4422 0.0149
vn 0.9701 0.2244 -0.0924
vn 0.8989 -0.0870 -0.4294
vn 0.2363 0.1517 -0.9598
vn -0.0092 0.5355 -0.8445
vn -0.5215 0.2016 -0.8291
vn -0.3099 0.0435 -0.9498
vn -0.9022 0.3042 -0.3058
vn -0.9648 0.2393 0.1088
vn -0.9197 0.3115 0.2388
vn -0.8212 0.1480 0.5511
vn -0.5936 0.0005 0.8048
vn 0.2129 0.4445 0.8701
vn 0.4956 0.3931 0.7745
vn 0.8463 0.1195 0.5191
vn 0.8699 0.4931 -0.0095
vn 0.4589 0.2969 -0.8374
vn -0.8725 -0.0175 -0.4883
vn -0.8218 0.1473 0.5503
vn 0.3909 0.3180 0.8637
vn 0.9081 0.3339 -0.2528
vt 0.337894 0.218880
vt 0.338743 0.218880
vt 0.334499 0.218880
vt 0.335348 0.218880
vt 0.336197 0.218880
vt 0.337046 0.218880
vt 0.336621 0.218145
vt 0.335772 0.218145
vt 0.334923 0.218145
vt 0.338319 0.218145
vt 0.337470 0.218145
vt 0.337258 0.219247
vt 0.336833 0.219247
vt 0.338107 0.219247
vt 0.337682 0.219247
vt 0.334711 0.219247
vt 0.338531 0.219247
vt 0.334286 0.219247
vt 0.335560 0.219247
vt 0.335135 0.219247
vt 0.336409 0.219247
vt 0.335984 0.219247
vt 0.337470 0.218880
vt 0.338319 0.218880
vt 0.334923 0.218880
vt 0.335772 0.218880
vt 0.336621 0.218880
vt 0.338107 0.218512
vt 0.337682 0.218512
vt 0.336833 0.218512
vt 0.337258 0.218512
vt 0.334711 0.218512
vt 0.338531 0.218512
vt 0.335560 0.218512
vt 0.335135 0.218512
vt 0.336409 0.218512
vt 0.335984 0.218512
s 0
usemtl Material
f 1/1/1 17/23/1 22/29/1
f 2/2/2 18/24/2 24/33/2
f 3/4/3 19/25/3 25/35/3
f 4/5/4 20/26/4 26/37/4
f 5/6/5 21/27/5 23/30/5
f 23/30/6 26/36/6 6/7/6
f 23/30/7 21/27/7 26/36/7
f 21/27/8 4/5/8 26/36/8
f 26/37/9 25/34/9 6/8/9
f 26/37/10 20/26/10 25/34/10
f 20/26/11 3/4/11 25/34/11
f 25/35/12 24/32/12 6/9/12
f 25/35/13 19/25/13 24/32/13
f 19/25/14 2/3/14 24/32/14
f 24/33/15 22/28/15 6/10/15
f 24/33/16 18/24/16 22/28/16
f 18/24/17 1/1/17 22/28/17
f 22/29/18 23/31/18 6/11/18
f 22/29/19 17/23/19 23/31/19
f 17/23/20 5/6/20 23/31/20
f 8/13/21 21/27/21 5/6/21
f 8/13/22 15/21/22 21/27/22
f 15/21/23 4/5/23 21/27/23
f 16/22/24 20/26/24 4/5/24
f 16/22/25 13/19/25 20/26/25
f 13/19/26 3/4/26 20/26/26
f 14/20/27 19/25/27 3/4/27
f 14/20/28 11/16/28 19/25/28
f 11/16/29 2/3/29 19/25/29
f 12/17/30 18/24/30 2/2/30
f 12/17/31 9/14/31 18/24/31
f 9/14/32 1/1/32 18/24/32
f 10/15/33 17/23/33 1/1/33
f 10/15/34 7/12/34 17/23/34
f 7/12/35 5/6/35 17/23/35
f 15/21/36 16/22/36 4/5/36
f 13/19/37 14/20/37 3/4/37
f 11/16/38 12/18/38 2/3/38
f 9/14/39 10/15/39 1/1/39
f 7/12/40 8/13/40 5/6/40
